<mxfile host="Electron" modified="2023-04-30T14:32:43.749Z" agent="Mozilla/5.0 (Windows NT 10.0; Win64; x64) AppleWebKit/537.36 (KHTML, like Gecko) draw.io/21.2.1 Chrome/112.0.5615.87 Electron/24.1.2 Safari/537.36" etag="udQv2F4OH0aglfgB2YGY" version="21.2.1" type="device">
  <diagram id="C5RBs43oDa-KdzZeNtuy" name="Page-1">
    <mxGraphModel dx="1098" dy="820" grid="1" gridSize="10" guides="1" tooltips="1" connect="1" arrows="1" fold="1" page="1" pageScale="1" pageWidth="827" pageHeight="1169" math="0" shadow="0">
      <root>
        <mxCell id="WIyWlLk6GJQsqaUBKTNV-0" />
        <mxCell id="WIyWlLk6GJQsqaUBKTNV-1" parent="WIyWlLk6GJQsqaUBKTNV-0" />
        <mxCell id="RpC6m1E0fhvYrp-hgigb-4" value="" style="edgeStyle=orthogonalEdgeStyle;rounded=0;orthogonalLoop=1;jettySize=auto;html=1;" parent="WIyWlLk6GJQsqaUBKTNV-1" source="RpC6m1E0fhvYrp-hgigb-0" target="RpC6m1E0fhvYrp-hgigb-3" edge="1">
          <mxGeometry relative="1" as="geometry" />
        </mxCell>
        <mxCell id="RpC6m1E0fhvYrp-hgigb-0" value="Start&amp;nbsp; podprogramu" style="rounded=1;whiteSpace=wrap;html=1;absoluteArcSize=1;arcSize=14;strokeWidth=2;" parent="WIyWlLk6GJQsqaUBKTNV-1" vertex="1">
          <mxGeometry x="30" y="30" width="170" height="50" as="geometry" />
        </mxCell>
        <mxCell id="RpC6m1E0fhvYrp-hgigb-8" value="NE" style="edgeStyle=orthogonalEdgeStyle;rounded=0;orthogonalLoop=1;jettySize=auto;html=1;" parent="WIyWlLk6GJQsqaUBKTNV-1" source="RpC6m1E0fhvYrp-hgigb-3" target="RpC6m1E0fhvYrp-hgigb-7" edge="1">
          <mxGeometry relative="1" as="geometry" />
        </mxCell>
        <mxCell id="RpC6m1E0fhvYrp-hgigb-33" value="ANO" style="edgeStyle=orthogonalEdgeStyle;rounded=0;orthogonalLoop=1;jettySize=auto;html=1;" parent="WIyWlLk6GJQsqaUBKTNV-1" source="RpC6m1E0fhvYrp-hgigb-3" target="RpC6m1E0fhvYrp-hgigb-32" edge="1">
          <mxGeometry relative="1" as="geometry" />
        </mxCell>
        <mxCell id="RpC6m1E0fhvYrp-hgigb-3" value="Je stiknuto tlacitko RIGHT&lt;br&gt;na displaji?" style="rhombus;whiteSpace=wrap;html=1;rounded=1;arcSize=14;strokeWidth=2;" parent="WIyWlLk6GJQsqaUBKTNV-1" vertex="1">
          <mxGeometry x="67" y="110" width="96" height="110" as="geometry" />
        </mxCell>
        <mxCell id="RpC6m1E0fhvYrp-hgigb-13" value="NE" style="edgeStyle=orthogonalEdgeStyle;rounded=0;orthogonalLoop=1;jettySize=auto;html=1;entryX=0.5;entryY=0;entryDx=0;entryDy=0;" parent="WIyWlLk6GJQsqaUBKTNV-1" source="RpC6m1E0fhvYrp-hgigb-7" target="RpC6m1E0fhvYrp-hgigb-3" edge="1">
          <mxGeometry x="-0.1858" relative="1" as="geometry">
            <Array as="points">
              <mxPoint x="20" y="313" />
              <mxPoint x="20" y="110" />
            </Array>
            <mxPoint as="offset" />
          </mxGeometry>
        </mxCell>
        <mxCell id="RpC6m1E0fhvYrp-hgigb-16" value="" style="edgeStyle=orthogonalEdgeStyle;rounded=0;orthogonalLoop=1;jettySize=auto;html=1;" parent="WIyWlLk6GJQsqaUBKTNV-1" source="RpC6m1E0fhvYrp-hgigb-7" target="RpC6m1E0fhvYrp-hgigb-15" edge="1">
          <mxGeometry relative="1" as="geometry" />
        </mxCell>
        <mxCell id="RpC6m1E0fhvYrp-hgigb-7" value="Byla stiknuta klávesa na klávesnici?" style="rhombus;whiteSpace=wrap;html=1;rounded=1;arcSize=14;strokeWidth=2;" parent="WIyWlLk6GJQsqaUBKTNV-1" vertex="1">
          <mxGeometry x="62" y="260" width="106" height="105" as="geometry" />
        </mxCell>
        <mxCell id="RpC6m1E0fhvYrp-hgigb-22" value="" style="edgeStyle=orthogonalEdgeStyle;rounded=0;orthogonalLoop=1;jettySize=auto;html=1;" parent="WIyWlLk6GJQsqaUBKTNV-1" source="RpC6m1E0fhvYrp-hgigb-11" target="RpC6m1E0fhvYrp-hgigb-20" edge="1">
          <mxGeometry relative="1" as="geometry" />
        </mxCell>
        <mxCell id="RpC6m1E0fhvYrp-hgigb-11" value="Zapiš klávesu do bufferu a inkrementuj o jednu proměnou increment" style="whiteSpace=wrap;html=1;rounded=1;arcSize=14;strokeWidth=2;" parent="WIyWlLk6GJQsqaUBKTNV-1" vertex="1">
          <mxGeometry x="210" y="365" width="120" height="60" as="geometry" />
        </mxCell>
        <mxCell id="RpC6m1E0fhvYrp-hgigb-17" value="NE" style="edgeStyle=orthogonalEdgeStyle;rounded=0;orthogonalLoop=1;jettySize=auto;html=1;" parent="WIyWlLk6GJQsqaUBKTNV-1" source="RpC6m1E0fhvYrp-hgigb-15" target="RpC6m1E0fhvYrp-hgigb-11" edge="1">
          <mxGeometry relative="1" as="geometry">
            <Array as="points">
              <mxPoint x="270" y="461" />
            </Array>
          </mxGeometry>
        </mxCell>
        <mxCell id="RpC6m1E0fhvYrp-hgigb-19" value="ANO" style="edgeStyle=orthogonalEdgeStyle;rounded=0;orthogonalLoop=1;jettySize=auto;html=1;" parent="WIyWlLk6GJQsqaUBKTNV-1" source="RpC6m1E0fhvYrp-hgigb-15" target="RpC6m1E0fhvYrp-hgigb-18" edge="1">
          <mxGeometry relative="1" as="geometry" />
        </mxCell>
        <mxCell id="RpC6m1E0fhvYrp-hgigb-15" value="&lt;font style=&quot;font-size: 10px;&quot;&gt;Bylo dosazeno&lt;br&gt;&amp;nbsp;maximalni hodnoty &lt;br&gt;proměnné increment?&lt;/font&gt;" style="rhombus;whiteSpace=wrap;html=1;rounded=1;arcSize=14;strokeWidth=2;" parent="WIyWlLk6GJQsqaUBKTNV-1" vertex="1">
          <mxGeometry x="47.5" y="400" width="135" height="122.5" as="geometry" />
        </mxCell>
        <mxCell id="RpC6m1E0fhvYrp-hgigb-30" style="edgeStyle=orthogonalEdgeStyle;rounded=0;orthogonalLoop=1;jettySize=auto;html=1;entryX=0.5;entryY=1;entryDx=0;entryDy=0;" parent="WIyWlLk6GJQsqaUBKTNV-1" source="RpC6m1E0fhvYrp-hgigb-18" target="RpC6m1E0fhvYrp-hgigb-20" edge="1">
          <mxGeometry relative="1" as="geometry">
            <Array as="points">
              <mxPoint x="370" y="600" />
              <mxPoint x="370" y="340" />
            </Array>
          </mxGeometry>
        </mxCell>
        <mxCell id="RpC6m1E0fhvYrp-hgigb-18" value="Nic se nezapise a uzivatel musi bud volbu hodnot potvrdit nebo vymazat" style="whiteSpace=wrap;html=1;rounded=1;arcSize=14;strokeWidth=2;" parent="WIyWlLk6GJQsqaUBKTNV-1" vertex="1">
          <mxGeometry x="55" y="570" width="120" height="60" as="geometry" />
        </mxCell>
        <mxCell id="RpC6m1E0fhvYrp-hgigb-24" value="ANO" style="edgeStyle=orthogonalEdgeStyle;rounded=0;orthogonalLoop=1;jettySize=auto;html=1;" parent="WIyWlLk6GJQsqaUBKTNV-1" source="RpC6m1E0fhvYrp-hgigb-20" target="RpC6m1E0fhvYrp-hgigb-23" edge="1">
          <mxGeometry relative="1" as="geometry" />
        </mxCell>
        <mxCell id="RpC6m1E0fhvYrp-hgigb-31" value="NE" style="edgeStyle=orthogonalEdgeStyle;rounded=0;orthogonalLoop=1;jettySize=auto;html=1;" parent="WIyWlLk6GJQsqaUBKTNV-1" source="RpC6m1E0fhvYrp-hgigb-20" edge="1">
          <mxGeometry relative="1" as="geometry">
            <mxPoint x="270" y="110" as="targetPoint" />
          </mxGeometry>
        </mxCell>
        <mxCell id="RpC6m1E0fhvYrp-hgigb-20" value="Bylo stiknuto tlačítko LEFT na displaji?" style="rhombus;whiteSpace=wrap;html=1;rounded=1;arcSize=14;strokeWidth=2;" parent="WIyWlLk6GJQsqaUBKTNV-1" vertex="1">
          <mxGeometry x="217.5" y="240" width="105" height="100" as="geometry" />
        </mxCell>
        <mxCell id="RpC6m1E0fhvYrp-hgigb-25" style="edgeStyle=orthogonalEdgeStyle;rounded=0;orthogonalLoop=1;jettySize=auto;html=1;entryX=0.5;entryY=0;entryDx=0;entryDy=0;" parent="WIyWlLk6GJQsqaUBKTNV-1" source="RpC6m1E0fhvYrp-hgigb-23" target="RpC6m1E0fhvYrp-hgigb-3" edge="1">
          <mxGeometry relative="1" as="geometry">
            <Array as="points">
              <mxPoint x="390" y="110" />
            </Array>
          </mxGeometry>
        </mxCell>
        <mxCell id="RpC6m1E0fhvYrp-hgigb-23" value="Vymaz buffer a nastav proměnnou increment na 0" style="whiteSpace=wrap;html=1;rounded=1;arcSize=14;strokeWidth=2;" parent="WIyWlLk6GJQsqaUBKTNV-1" vertex="1">
          <mxGeometry x="340" y="170" width="120" height="60" as="geometry" />
        </mxCell>
        <mxCell id="RpC6m1E0fhvYrp-hgigb-32" value="ČÁST 2" style="whiteSpace=wrap;html=1;rounded=1;arcSize=14;strokeWidth=2;" parent="WIyWlLk6GJQsqaUBKTNV-1" vertex="1">
          <mxGeometry x="175" y="230" width="55" height="17.5" as="geometry" />
        </mxCell>
        <mxCell id="RpC6m1E0fhvYrp-hgigb-37" value="" style="edgeStyle=orthogonalEdgeStyle;rounded=0;orthogonalLoop=1;jettySize=auto;html=1;" parent="WIyWlLk6GJQsqaUBKTNV-1" source="RpC6m1E0fhvYrp-hgigb-35" target="RpC6m1E0fhvYrp-hgigb-36" edge="1">
          <mxGeometry relative="1" as="geometry" />
        </mxCell>
        <mxCell id="RpC6m1E0fhvYrp-hgigb-35" value="ČÁST 2" style="rounded=1;whiteSpace=wrap;html=1;absoluteArcSize=1;arcSize=14;strokeWidth=2;" parent="WIyWlLk6GJQsqaUBKTNV-1" vertex="1">
          <mxGeometry x="550" y="30" width="170" height="50" as="geometry" />
        </mxCell>
        <mxCell id="RpC6m1E0fhvYrp-hgigb-39" value="" style="edgeStyle=orthogonalEdgeStyle;rounded=0;orthogonalLoop=1;jettySize=auto;html=1;" parent="WIyWlLk6GJQsqaUBKTNV-1" source="RpC6m1E0fhvYrp-hgigb-36" target="RpC6m1E0fhvYrp-hgigb-38" edge="1">
          <mxGeometry relative="1" as="geometry" />
        </mxCell>
        <mxCell id="RpC6m1E0fhvYrp-hgigb-36" value="Převední pomocí FOR funkce char znaky na číselnou hodnotu" style="rounded=1;whiteSpace=wrap;html=1;absoluteArcSize=1;arcSize=14;strokeWidth=2;" parent="WIyWlLk6GJQsqaUBKTNV-1" vertex="1">
          <mxGeometry x="550" y="160" width="170" height="50" as="geometry" />
        </mxCell>
        <mxCell id="RpC6m1E0fhvYrp-hgigb-41" value="" style="edgeStyle=orthogonalEdgeStyle;rounded=0;orthogonalLoop=1;jettySize=auto;html=1;" parent="WIyWlLk6GJQsqaUBKTNV-1" source="RpC6m1E0fhvYrp-hgigb-38" target="RpC6m1E0fhvYrp-hgigb-40" edge="1">
          <mxGeometry relative="1" as="geometry" />
        </mxCell>
        <mxCell id="RpC6m1E0fhvYrp-hgigb-38" value="Číselnou hodnotu ulož do dané proměnné" style="rounded=1;whiteSpace=wrap;html=1;absoluteArcSize=1;arcSize=14;strokeWidth=2;" parent="WIyWlLk6GJQsqaUBKTNV-1" vertex="1">
          <mxGeometry x="550" y="290" width="170" height="50" as="geometry" />
        </mxCell>
        <mxCell id="RpC6m1E0fhvYrp-hgigb-40" value="Ukončit program" style="rounded=1;whiteSpace=wrap;html=1;absoluteArcSize=1;arcSize=14;strokeWidth=2;" parent="WIyWlLk6GJQsqaUBKTNV-1" vertex="1">
          <mxGeometry x="550" y="420" width="170" height="50" as="geometry" />
        </mxCell>
      </root>
    </mxGraphModel>
  </diagram>
</mxfile>
